<?xml version="1.0" encoding="UTF-8"?><svg xmlns="http://www.w3.org/2000/svg" viewBox="0 0 622.1 622.1"><defs><style>.d{fill:none;stroke:#fff;stroke-linecap:round;stroke-miterlimit:10;stroke-width:44px;}</style></defs><g id="a"/><g id="b"><g id="c"><g><g><path class="d" d="M300.65,599.97c-150.57-2.65-270.17-119.67-267.39-261.63,2.78-141.97,126.87-254.7,277.45-252.05"/><path class="d" d="M309.46,150.49c-112.93-1.99-206,82.56-208.09,189.04s87.61,194.24,200.54,196.22"/><path class="d" d="M303.17,471.55c-75.29-1.32-135.08-59.83-133.69-130.82,1.39-70.98,63.44-127.35,138.72-126.03"/><path class="d" d="M306.94,278.91c-37.64-.66-68.67,27.52-69.36,63.01-.7,35.49,29.2,64.75,66.85,65.41"/></g><path class="d" d="M317.06,22.16c150.57,2.65,270.17,119.67,267.39,261.63-2.78,141.97-126.87,254.7-277.45,252.05"/><path class="d" d="M308.26,471.64c112.93,1.99,206-82.56,208.09-189.04,2.09-106.47-87.61-194.24-200.54-196.22"/><path class="d" d="M314.55,150.58c75.29,1.32,135.08,59.83,133.69,130.82-1.39,70.98-63.44,127.35-138.72,126.03"/><path class="d" d="M310.77,343.21c37.64,.66,68.67-27.52,69.36-63.01,.7-35.49-29.2-64.75-66.85-65.41"/><ellipse class="d" cx="311.05" cy="311.05" rx="289.43" ry="288.66" transform="translate(-128.84 311.05) rotate(-45)"/></g></g></g></svg>