<?xml version="1.0" encoding="UTF-8"?><svg xmlns="http://www.w3.org/2000/svg" viewBox="0 0 678.83 657.86"><defs><style>.d{fill:none;stroke:#231f20;stroke-linecap:round;stroke-miterlimit:10;stroke-width:44px;}</style></defs><g id="a"/><g id="b"><g id="c"><g><g><g><path class="d" d="M23.9,336.93c0-144.24,125.82-260.96,281.3-260.96,155.49,0,281.3,116.72,281.3,260.96"/><path class="d" d="M516.18,336.93c0-108.18-94.36-195.72-210.98-195.72-116.61,0-210.98,87.54-210.98,195.72"/><path class="d" d="M164.55,336.93c0-72.12,62.91-130.48,140.65-130.48,77.74,0,140.65,58.36,140.65,130.48"/><path class="d" d="M375.53,336.93c0-36.06-31.45-65.24-70.33-65.24-38.87,0-70.33,29.18-70.33,65.24"/></g><path class="d" d="M656.83,343.74c0,144.24-125.82,260.96-281.3,260.96-155.49,0-281.3-116.72-281.3-260.96"/><path class="d" d="M164.55,343.74c0,108.18,94.36,195.72,210.98,195.72s210.98-87.54,210.98-195.72"/><path class="d" d="M516.18,343.74c0,72.12-62.91,130.48-140.65,130.48-77.74,0-140.65-58.36-140.65-130.48"/><path class="d" d="M305.2,343.74c0,36.06,31.45,65.24,70.33,65.24,38.87,0,70.33-29.18,70.33-65.24"/></g><ellipse class="d" cx="338.93" cy="328.93" rx="316.93" ry="306.93"/></g></g></g></svg>