<svg width="46" height="46" viewBox="0 0 46 46" fill="none" xmlns="http://www.w3.org/2000/svg">
<path d="M23.3067 41.3354C33.377 41.3354 41.5686 33.1423 41.5686 23.0735C41.5686 13.0047 33.3773 4.81158 23.3067 4.81158C13.236 4.81158 5.04474 13.0029 5.04474 23.0735C5.04474 26.9329 6.2934 30.7043 8.55162 33.8105L18.79 23.5722C18.6021 22.1738 19.0261 20.7052 20.0988 19.6329C21.8662 17.8637 24.9544 17.8637 26.7202 19.6329C27.605 20.5178 28.0922 21.6932 28.0922 22.9436C28.0922 24.1941 27.605 25.3699 26.7202 26.256C25.8353 27.1421 24.6599 27.628 23.4095 27.628C23.1966 27.628 22.9886 27.5947 22.781 27.5666L12.5412 37.8068C15.6522 40.0798 19.4338 41.3351 23.3063 41.3351L23.3067 41.3354Z" fill="black"/>
<path d="M25.5471 25.0802C26.7093 23.9197 26.7075 21.9674 25.5471 20.8082C24.3848 19.6478 22.4374 19.646 21.2769 20.8082C20.0981 21.9889 20.1327 23.9359 21.2769 25.0802C22.3992 26.2042 24.4129 26.2125 25.5471 25.0802Z" fill="black"/>
<path d="M20.1145 26.2678C20.1096 26.263 20.1044 26.2612 20.0995 26.256C19.8134 25.9698 19.5974 25.6555 19.3863 25.3281L4.07497 40.6395C3.62422 41.0836 3.62772 41.8315 4.07497 42.2792C4.51388 42.7199 5.27712 42.7182 5.71476 42.2792L21.0283 26.9679C20.7071 26.7634 20.3928 26.5457 20.115 26.2678L20.1145 26.2678Z" fill="black"/>
<path d="M23.3066 0.625C10.929 0.625 0.858154 10.6953 0.858154 23.0735C0.858154 28.0489 2.53614 32.8778 5.56717 36.7949L7.36494 34.9971C4.80088 31.5702 3.38233 27.3733 3.38233 23.0735C3.38233 12.0872 12.3203 3.14973 23.3061 3.14973C34.2928 3.14973 43.2309 12.0877 43.2309 23.0735C43.2309 34.0602 34.293 42.9983 23.3061 42.9983C18.9942 42.9983 14.7873 41.5715 11.3532 38.9941L9.5554 40.7919C13.4802 43.8362 18.3173 45.5225 23.3061 45.5225C35.6848 45.5225 45.7545 35.4522 45.7545 23.074C45.7545 10.6964 35.6842 0.625561 23.3061 0.625561L23.3066 0.625Z" fill="black"/>
</svg>
