<svg width="35" height="303" viewBox="0 0 35 303" fill="none" xmlns="http://www.w3.org/2000/svg">
<rect x="1" y="302" width="294.519" height="33" transform="rotate(-90 1 302)" fill="white" stroke="black" stroke-width="2"/>
<rect x="1" y="24.0822" width="16.6008" height="33" transform="rotate(-90 1 24.0822)" fill="white" stroke="black" stroke-width="2"/>
<rect x="1" y="119" width="56" height="33" transform="rotate(-90 1 119)" fill="white" stroke="black" stroke-width="2"/>
<path d="M0 70.5519L0 53.049L25.7143 53.049V70.5519H0Z" fill="black"/>
<path d="M1 300.976L1 219.017H34L34 300.976H1Z" fill="white" stroke="black" stroke-width="2"/>
<path d="M1 222L1 188H34V222H1Z" fill="white" stroke="black" stroke-width="2"/>
<path d="M1 152L1 108H34V152H1Z" fill="white" stroke="black" stroke-width="2"/>
<path d="M1 302L1 265H34V302H1Z" fill="white" stroke="black" stroke-width="2"/>
<path d="M1 24L1 1L34 1V24L1 24Z" fill="white" stroke="black" stroke-width="2"/>
<path d="M0 273.427L0 256.02H25.7143V273.427H0Z" fill="black"/>
<path d="M0 273.427L0 256.02H25.7143V273.427H0Z" stroke="black"/>
<path d="M0 231.423L0 214.017H25.7143V231.423H0Z" fill="black"/>
<path d="M0 231.423L0 214.017H25.7143V231.423H0Z" stroke="black"/>
<rect y="115.75" width="17.25" height="25.7143" transform="rotate(-90 0 115.75)" fill="black"/>
<path d="M0 161.75L0 144.5H25.7143V161.75H0Z" fill="black"/>
</svg>
