<svg width="35" height="303" viewBox="0 0 35 303" fill="none" xmlns="http://www.w3.org/2000/svg">
<rect x="1" y="302" width="294.519" height="33" transform="rotate(-90 1 302)" fill="white" stroke="black" stroke-width="2"/>
<rect x="1" y="24.0822" width="16.6008" height="33" transform="rotate(-90 1 24.0822)" fill="white" stroke="black" stroke-width="2"/>
<rect x="1" y="119" width="56" height="33" transform="rotate(-90 1 119)" fill="white" stroke="black" stroke-width="2"/>
<path d="M0 70.5519L0 53.049L25.7143 53.049V70.5519H0Z" fill="black"/>
<path d="M1 300.976L1 219.017H34L34 300.976H1Z" fill="white" stroke="black" stroke-width="2"/>
<path d="M1 222L1 188H34V222H1Z" fill="white" stroke="black" stroke-width="2"/>
<path d="M1 152L1 108H34V152H1Z" fill="white" stroke="black" stroke-width="2"/>
<path d="M1 302L1 265H34V302H1Z" fill="white" stroke="black" stroke-width="2"/>
<path d="M1 24L1 1L34 1V24L1 24Z" fill="white" stroke="black" stroke-width="2"/>
<path d="M0 273.427L0 256.02H25.7143V273.427H0Z" fill="black"/>
<path d="M0 273.427L0 256.02H25.7143V273.427H0Z" stroke="black"/>
<path d="M0 231.423L0 214.017H25.7143V231.423H0Z" fill="black"/>
<path d="M0 231.423L0 214.017H25.7143V231.423H0Z" stroke="black"/>
<rect y="115.75" width="17.25" height="25.7143" transform="rotate(-90 0 115.75)" fill="black"/>
<path d="M0 161.75L0 144.5H25.7143V161.75H0Z" fill="black"/>
<path d="M9.44531 8.58594C8.8151 8.58594 8.2474 8.69531 7.74219 8.91406C7.24219 9.1276 6.8151 9.4401 6.46094 9.85156C6.11198 10.2578 5.84375 10.75 5.65625 11.3281C5.46875 11.9062 5.375 12.5573 5.375 13.2812C5.375 14.2396 5.52344 15.0729 5.82031 15.7812C6.1224 16.4844 6.57031 17.0286 7.16406 17.4141C7.76302 17.7995 8.51042 17.9922 9.40625 17.9922C9.91667 17.9922 10.3958 17.9505 10.8438 17.8672C11.2969 17.7786 11.737 17.6693 12.1641 17.5391V18.6953C11.7474 18.8516 11.3099 18.9661 10.8516 19.0391C10.3932 19.1172 9.84896 19.1562 9.21875 19.1562C8.05729 19.1562 7.08594 18.9167 6.30469 18.4375C5.52865 17.9531 4.94531 17.2708 4.55469 16.3906C4.16927 15.5104 3.97656 14.4714 3.97656 13.2734C3.97656 12.4089 4.09635 11.6198 4.33594 10.9062C4.58073 10.1875 4.9349 9.56771 5.39844 9.04688C5.86719 8.52604 6.4401 8.125 7.11719 7.84375C7.79948 7.55729 8.58073 7.41406 9.46094 7.41406C10.0391 7.41406 10.5964 7.47135 11.1328 7.58594C11.6693 7.70052 12.1536 7.86458 12.5859 8.07812L12.0547 9.20312C11.6901 9.03646 11.2891 8.89323 10.8516 8.77344C10.4193 8.64844 9.95052 8.58594 9.44531 8.58594Z" fill="black"/>
<path d="M4.5625 34.5781H7.79688C9.22396 34.5781 10.2969 34.7917 11.0156 35.2188C11.7344 35.6458 12.0938 36.3724 12.0938 37.3984C12.0938 37.8411 12.0078 38.2396 11.8359 38.5938C11.6693 38.9427 11.4245 39.2318 11.1016 39.4609C10.7786 39.6901 10.3802 39.849 9.90625 39.9375V40.0156C10.4062 40.0938 10.849 40.237 11.2344 40.4453C11.6198 40.6536 11.9219 40.9453 12.1406 41.3203C12.3594 41.6953 12.4688 42.1719 12.4688 42.75C12.4688 43.4531 12.3047 44.0469 11.9766 44.5312C11.6536 45.0156 11.1953 45.3828 10.6016 45.6328C10.0078 45.8776 9.30469 46 8.49219 46H4.5625V34.5781ZM5.89062 39.4766H8.07812C9.07292 39.4766 9.76042 39.3125 10.1406 38.9844C10.526 38.6562 10.7188 38.1771 10.7188 37.5469C10.7188 36.8958 10.4896 36.4271 10.0312 36.1406C9.57812 35.8542 8.85417 35.7109 7.85938 35.7109H5.89062V39.4766ZM5.89062 40.5938V44.8672H8.26562C9.28125 44.8672 10 44.6693 10.4219 44.2734C10.8438 43.8724 11.0547 43.3333 11.0547 42.6562C11.0547 42.224 10.9583 41.8542 10.7656 41.5469C10.5781 41.2396 10.2708 41.0052 9.84375 40.8438C9.42188 40.6771 8.85677 40.5938 8.14844 40.5938H5.89062Z" fill="black"/>
<path d="M11.7266 68L10.3203 64.375H5.74219L4.34375 68H3L7.46875 56.5312H8.66406L13.1016 68H11.7266ZM9.92188 63.1953L8.58594 59.5938C8.55469 59.5 8.5026 59.3464 8.42969 59.1328C8.36198 58.9193 8.29167 58.6979 8.21875 58.4688C8.14583 58.2396 8.08594 58.0547 8.03906 57.9141C7.98698 58.1276 7.92969 58.3411 7.86719 58.5547C7.8099 58.763 7.7526 58.9583 7.69531 59.1406C7.63802 59.3177 7.58854 59.4688 7.54688 59.5938L6.1875 63.1953H9.92188ZM20.7812 60.9766L20.2734 63.6328H22.4844V64.625H20.0781L19.4141 68H18.3594L19.0234 64.625H16.6406L16 68H14.9609L15.5781 64.625H13.5312V63.6328H15.7734L16.2969 60.9766H14.125V60H16.4766L17.125 56.5781H18.1953L17.5469 60H19.9453L20.5938 56.5781H21.625L20.9766 60H23.0469V60.9766H20.7812ZM16.8281 63.6328H19.2109L19.7266 60.9766H17.3438L16.8281 63.6328Z" fill="#FEFEFE"/>
<path d="M9.44531 107.016H13.4375V112.555C12.8385 112.758 12.2214 112.909 11.5859 113.008C10.9557 113.107 10.25 113.156 9.46875 113.156C8.28125 113.156 7.27865 112.919 6.46094 112.445C5.64844 111.971 5.03125 111.297 4.60938 110.422C4.1875 109.542 3.97656 108.497 3.97656 107.289C3.97656 106.107 4.20833 105.076 4.67188 104.195C5.14062 103.315 5.8151 102.633 6.69531 102.148C7.58073 101.659 8.64323 101.414 9.88281 101.414C10.5182 101.414 11.1198 101.474 11.6875 101.594C12.2604 101.708 12.7917 101.872 13.2812 102.086L12.7734 103.242C12.3516 103.06 11.8854 102.904 11.375 102.773C10.8698 102.643 10.3464 102.578 9.80469 102.578C8.8724 102.578 8.07292 102.771 7.40625 103.156C6.74479 103.542 6.23698 104.086 5.88281 104.789C5.53385 105.492 5.35938 106.326 5.35938 107.289C5.35938 108.242 5.51302 109.073 5.82031 109.781C6.1276 110.484 6.60677 111.031 7.25781 111.422C7.90885 111.812 8.7474 112.008 9.77344 112.008C10.2891 112.008 10.7318 111.979 11.1016 111.922C11.4714 111.859 11.8073 111.786 12.1094 111.703V108.203H9.44531V107.016ZM22.2969 105.977L21.7891 108.633H24V109.625H21.5938L20.9297 113H19.875L20.5391 109.625H18.1562L17.5156 113H16.4766L17.0938 109.625H15.0469V108.633H17.2891L17.8125 105.977H15.6406V105H17.9922L18.6406 101.578H19.7109L19.0625 105H21.4609L22.1094 101.578H23.1406L22.4922 105H24.5625V105.977H22.2969ZM18.3438 108.633H20.7266L21.2422 105.977H18.8594L18.3438 108.633Z" fill="#FEFEFE"/>
<path d="M5.89062 159H4.5625V147.578H10.9219V148.75H5.89062V152.938H10.6172V154.102H5.89062V159ZM18.9219 151.977L18.4141 154.633H20.625V155.625H18.2188L17.5547 159H16.5L17.1641 155.625H14.7812L14.1406 159H13.1016L13.7188 155.625H11.6719V154.633H13.9141L14.4375 151.977H12.2656V151H14.6172L15.2656 147.578H16.3359L15.6875 151H18.0859L18.7344 147.578H19.7656L19.1172 151H21.1875V151.977H18.9219ZM14.9688 154.633H17.3516L17.8672 151.977H15.4844L14.9688 154.633Z" fill="#FEFEFE"/>
<path d="M13.6328 223.18C13.6328 224.466 13.3984 225.542 12.9297 226.406C12.4609 227.266 11.7812 227.914 10.8906 228.352C10.0052 228.784 8.92969 229 7.66406 229H4.5625V217.578H8.00781C9.16927 217.578 10.1693 217.792 11.0078 218.219C11.8464 218.641 12.4922 219.268 12.9453 220.102C13.4036 220.93 13.6328 221.956 13.6328 223.18ZM12.2344 223.227C12.2344 222.201 12.0625 221.354 11.7188 220.688C11.3802 220.021 10.8802 219.526 10.2188 219.203C9.5625 218.875 8.75781 218.711 7.80469 218.711H5.89062V227.859H7.50781C9.08073 227.859 10.2604 227.471 11.0469 226.695C11.8385 225.919 12.2344 224.763 12.2344 223.227ZM22.2656 221.977L21.7578 224.633H23.9688V225.625H21.5625L20.8984 229H19.8438L20.5078 225.625H18.125L17.4844 229H16.4453L17.0625 225.625H15.0156V224.633H17.2578L17.7812 221.977H15.6094V221H17.9609L18.6094 217.578H19.6797L19.0312 221H21.4297L22.0781 217.578H23.1094L22.4609 221H24.5312V221.977H22.2656ZM18.3125 224.633H20.6953L21.2109 221.977H18.8281L18.3125 224.633Z" fill="#FEFEFE"/>
<path d="M9.44531 260.586C8.8151 260.586 8.2474 260.695 7.74219 260.914C7.24219 261.128 6.8151 261.44 6.46094 261.852C6.11198 262.258 5.84375 262.75 5.65625 263.328C5.46875 263.906 5.375 264.557 5.375 265.281C5.375 266.24 5.52344 267.073 5.82031 267.781C6.1224 268.484 6.57031 269.029 7.16406 269.414C7.76302 269.799 8.51042 269.992 9.40625 269.992C9.91667 269.992 10.3958 269.951 10.8438 269.867C11.2969 269.779 11.737 269.669 12.1641 269.539V270.695C11.7474 270.852 11.3099 270.966 10.8516 271.039C10.3932 271.117 9.84896 271.156 9.21875 271.156C8.05729 271.156 7.08594 270.917 6.30469 270.438C5.52865 269.953 4.94531 269.271 4.55469 268.391C4.16927 267.51 3.97656 266.471 3.97656 265.273C3.97656 264.409 4.09635 263.62 4.33594 262.906C4.58073 262.188 4.9349 261.568 5.39844 261.047C5.86719 260.526 6.4401 260.125 7.11719 259.844C7.79948 259.557 8.58073 259.414 9.46094 259.414C10.0391 259.414 10.5964 259.471 11.1328 259.586C11.6693 259.701 12.1536 259.865 12.5859 260.078L12.0547 261.203C11.6901 261.036 11.2891 260.893 10.8516 260.773C10.4193 260.648 9.95052 260.586 9.44531 260.586ZM20.7344 263.977L20.2266 266.633H22.4375V267.625H20.0312L19.3672 271H18.3125L18.9766 267.625H16.5938L15.9531 271H14.9141L15.5312 267.625H13.4844V266.633H15.7266L16.25 263.977H14.0781V263H16.4297L17.0781 259.578H18.1484L17.5 263H19.8984L20.5469 259.578H21.5781L20.9297 263H23V263.977H20.7344ZM16.7812 266.633H19.1641L19.6797 263.977H17.2969L16.7812 266.633Z" fill="#FEFEFE"/>
<path d="M9.44531 130.016H13.4375V135.555C12.8385 135.758 12.2214 135.909 11.5859 136.008C10.9557 136.107 10.25 136.156 9.46875 136.156C8.28125 136.156 7.27865 135.919 6.46094 135.445C5.64844 134.971 5.03125 134.297 4.60938 133.422C4.1875 132.542 3.97656 131.497 3.97656 130.289C3.97656 129.107 4.20833 128.076 4.67188 127.195C5.14062 126.315 5.8151 125.633 6.69531 125.148C7.58073 124.659 8.64323 124.414 9.88281 124.414C10.5182 124.414 11.1198 124.474 11.6875 124.594C12.2604 124.708 12.7917 124.872 13.2812 125.086L12.7734 126.242C12.3516 126.06 11.8854 125.904 11.375 125.773C10.8698 125.643 10.3464 125.578 9.80469 125.578C8.8724 125.578 8.07292 125.771 7.40625 126.156C6.74479 126.542 6.23698 127.086 5.88281 127.789C5.53385 128.492 5.35938 129.326 5.35938 130.289C5.35938 131.242 5.51302 132.073 5.82031 132.781C6.1276 133.484 6.60677 134.031 7.25781 134.422C7.90885 134.812 8.7474 135.008 9.77344 135.008C10.2891 135.008 10.7318 134.979 11.1016 134.922C11.4714 134.859 11.8073 134.786 12.1094 134.703V131.203H9.44531V130.016Z" fill="black"/>
<path d="M5.89062 181H4.5625V169.578H10.9219V170.75H5.89062V174.938H10.6172V176.102H5.89062V181Z" fill="black"/>
<path d="M10.9219 209H4.5625V197.578H10.9219V198.75H5.89062V202.445H10.6328V203.602H5.89062V207.828H10.9219V209Z" fill="black"/>
<path d="M13.6328 244.18C13.6328 245.466 13.3984 246.542 12.9297 247.406C12.4609 248.266 11.7812 248.914 10.8906 249.352C10.0052 249.784 8.92969 250 7.66406 250H4.5625V238.578H8.00781C9.16927 238.578 10.1693 238.792 11.0078 239.219C11.8464 239.641 12.4922 240.268 12.9453 241.102C13.4036 241.93 13.6328 242.956 13.6328 244.18ZM12.2344 244.227C12.2344 243.201 12.0625 242.354 11.7188 241.688C11.3802 241.021 10.8802 240.526 10.2188 240.203C9.5625 239.875 8.75781 239.711 7.80469 239.711H5.89062V248.859H7.50781C9.08073 248.859 10.2604 248.471 11.0469 247.695C11.8385 246.919 12.2344 245.763 12.2344 244.227Z" fill="black"/>
<path d="M9.44531 282.586C8.8151 282.586 8.2474 282.695 7.74219 282.914C7.24219 283.128 6.8151 283.44 6.46094 283.852C6.11198 284.258 5.84375 284.75 5.65625 285.328C5.46875 285.906 5.375 286.557 5.375 287.281C5.375 288.24 5.52344 289.073 5.82031 289.781C6.1224 290.484 6.57031 291.029 7.16406 291.414C7.76302 291.799 8.51042 291.992 9.40625 291.992C9.91667 291.992 10.3958 291.951 10.8438 291.867C11.2969 291.779 11.737 291.669 12.1641 291.539V292.695C11.7474 292.852 11.3099 292.966 10.8516 293.039C10.3932 293.117 9.84896 293.156 9.21875 293.156C8.05729 293.156 7.08594 292.917 6.30469 292.438C5.52865 291.953 4.94531 291.271 4.55469 290.391C4.16927 289.51 3.97656 288.471 3.97656 287.273C3.97656 286.409 4.09635 285.62 4.33594 284.906C4.58073 284.188 4.9349 283.568 5.39844 283.047C5.86719 282.526 6.4401 282.125 7.11719 281.844C7.79948 281.557 8.58073 281.414 9.46094 281.414C10.0391 281.414 10.5964 281.471 11.1328 281.586C11.6693 281.701 12.1536 281.865 12.5859 282.078L12.0547 283.203C11.6901 283.036 11.2891 282.893 10.8516 282.773C10.4193 282.648 9.95052 282.586 9.44531 282.586Z" fill="black"/>
<path d="M11.7266 91L10.3203 87.375H5.74219L4.34375 91H3L7.46875 79.5312H8.66406L13.1016 91H11.7266ZM9.92188 86.1953L8.58594 82.5938C8.55469 82.5 8.5026 82.3464 8.42969 82.1328C8.36198 81.9193 8.29167 81.6979 8.21875 81.4688C8.14583 81.2396 8.08594 81.0547 8.03906 80.9141C7.98698 81.1276 7.92969 81.3411 7.86719 81.5547C7.8099 81.763 7.7526 81.9583 7.69531 82.1406C7.63802 82.3177 7.58854 82.4688 7.54688 82.5938L6.1875 86.1953H9.92188Z" fill="black"/>
</svg>
