<svg width="49" height="543" viewBox="0 0 49 543" fill="none" xmlns="http://www.w3.org/2000/svg">
<rect x="1" y="542" width="287.6" height="47" transform="rotate(-90 1 542)" fill="white" stroke="black" stroke-width="2"/>
<rect x="1" y="270.567" width="16.1668" height="47" transform="rotate(-90 1 270.567)" fill="white" stroke="black" stroke-width="2"/>
<rect x="1" y="278.545" width="24.1444" height="47" transform="rotate(-90 1 278.545)" fill="white" stroke="black" stroke-width="2"/>
<rect x="1" y="367.033" width="51.2944" height="47" transform="rotate(-90 1 367.033)" fill="white" stroke="black" stroke-width="2"/>
<path d="M0 323.789L0 306.694H36V323.789H0Z" fill="black"/>
<path d="M1 278.544L1 1H48L48 278.544H1Z" fill="white" stroke="black" stroke-width="2"/>
<rect x="1" y="23.1334" width="22.1333" height="47" transform="rotate(-90 1 23.1334)" fill="white" stroke="black" stroke-width="2"/>
<rect x="1" y="104" width="47" height="47" transform="rotate(-90 1 104)" fill="white" stroke="black" stroke-width="2"/>
<path d="M0 65.3334L0 48.2389L36 48.2389V65.3334L0 65.3334Z" fill="black"/>
<path d="M1 541L1 461H48L48 541H1Z" fill="white" stroke="black" stroke-width="2"/>
<path d="M1 277L1 198H48L48 277H1Z" fill="white" stroke="black" stroke-width="2"/>
<path d="M1 466L1 437H48V466H1Z" fill="white" stroke="black" stroke-width="2"/>
<path d="M1 206L1 173H48V206H1Z" fill="white" stroke="black" stroke-width="2"/>
<path d="M1 403L1 360H48V403H1Z" fill="white" stroke="black" stroke-width="2"/>
<path d="M1 143L1 100L48 100V143H1Z" fill="white" stroke="black" stroke-width="2"/>
<path d="M1 542L1 511H48V542H1Z" fill="white" stroke="black" stroke-width="2"/>
<path d="M1 284L1 251H48V284H1Z" fill="white" stroke="black" stroke-width="2"/>
<path d="M0 519L0 502H36V519H0Z" fill="black"/>
<path d="M0 519L0 502H36V519H0Z" stroke="black"/>
<path d="M0 259L0 242H36V259H0Z" fill="black"/>
<path d="M0 259L0 242H36V259H0Z" stroke="black"/>
<path d="M0 477L0 460H36V477H0Z" fill="black"/>
<path d="M0 477L0 460H36V477H0Z" stroke="black"/>
<path d="M0 216L0 198H36V216H0Z" fill="black"/>
<path d="M0 216L0 198H36V216H0Z" stroke="black"/>
<rect y="368" width="16" height="36" transform="rotate(-90 0 368)" fill="black"/>
<rect y="107" width="15" height="36" transform="rotate(-90 0 107)" fill="black"/>
<path d="M0 413L0 395H36V413H0Z" fill="black"/>
<path d="M0 151L0 133H36V151H0Z" fill="black"/>
</svg>
