<?xml version="1.0" encoding="UTF-8"?><svg xmlns="http://www.w3.org/2000/svg" viewBox="0 0 713.44 676.58"><defs><style>.d{fill:none;stroke:#231f20;stroke-linecap:round;stroke-miterlimit:10;stroke-width:21px;}</style></defs><g id="a"/><g id="b"><g id="c"><g><g><path class="d" d="M46.96,341.89c2.11,181.28,150.51,326.27,331.79,324.16s326.27-150.51,324.16-331.79"/><path class="d" d="M666.48,334.69c1.87,161.14-127,293.05-288.15,294.93S85.28,502.61,83.41,341.47"/><path class="d" d="M119.85,341.04c1.64,141,117.06,253.77,258.06,252.13s253.77-117.06,252.13-258.06"/><path class="d" d="M593.59,335.53c1.41,120.86-95.25,219.79-216.11,221.2-120.86,1.41-219.79-95.25-221.2-216.11"/><path class="d" d="M192.73,340.2c1.17,100.71,83.62,181.26,184.33,180.09s181.26-83.62,180.09-184.33"/><path class="d" d="M520.71,336.38c.94,80.57-63.5,146.53-144.07,147.46-80.57,.94-146.53-63.5-147.46-144.07"/><path class="d" d="M265.62,339.35c.7,60.43,50.17,108.76,110.6,108.05s108.76-50.17,108.05-110.6"/><path class="d" d="M447.83,337.23c.47,40.29-31.75,73.26-72.04,73.73s-73.26-31.75-73.73-72.04"/><path class="d" d="M338.5,338.5c.23,20.14,16.72,36.25,36.87,36.02,20.14-.23,36.25-16.72,36.02-36.87"/></g><path class="d" d="M666.48,334.69C664.37,153.4,515.97,8.41,334.69,10.52S8.41,161.03,10.52,342.32"/><path class="d" d="M46.96,341.89C45.09,180.75,173.97,48.84,335.11,46.96c161.14-1.87,293.05,127,294.93,288.15"/><path class="d" d="M593.59,335.53c-1.64-141-117.06-253.77-258.06-252.13S81.77,200.47,83.41,341.47"/><path class="d" d="M119.85,341.04c-1.41-120.86,95.25-219.79,216.11-221.2,120.86-1.41,219.79,95.25,221.2,216.11"/><path class="d" d="M520.71,336.38c-1.17-100.71-83.62-181.26-184.33-180.09s-181.26,83.62-180.09,184.33"/><path class="d" d="M192.73,340.2c-.94-80.57,63.5-146.53,144.07-147.46s146.53,63.5,147.46,144.07"/><path class="d" d="M447.83,337.23c-.7-60.43-50.17-108.76-110.6-108.05s-108.76,50.17-108.05,110.6"/><path class="d" d="M265.62,339.35c-.47-40.29,31.75-73.26,72.04-73.73s73.26,31.75,73.73,72.04"/><path class="d" d="M374.94,338.08c-.23-20.14-16.72-36.25-36.87-36.02s-36.25,16.72-36.02,36.87"/></g></g></g></svg>