<?xml version="1.0" encoding="UTF-8"?><svg xmlns="http://www.w3.org/2000/svg" viewBox="0 0 711.71 645.27"><defs><style>.d{fill:none;stroke:#231f20;stroke-linecap:round;stroke-miterlimit:10;stroke-width:44px;}</style></defs><g id="a"/><g id="b"><g id="c"><g><g><path class="d" d="M689.71,326.51c0,164.03-132.73,296.76-296.76,296.76S96.19,490.54,96.19,326.51"/><path class="d" d="M170.38,326.51c0,123.02,99.55,222.57,222.57,222.57,123.02,0,222.57-99.55,222.57-222.57"/><path class="d" d="M541.33,326.51c0,82.02-66.37,148.38-148.38,148.38s-148.38-66.37-148.38-148.38"/><path class="d" d="M318.76,326.51c0,41.01,33.18,74.19,74.19,74.19s74.19-33.18,74.19-74.19"/></g><path class="d" d="M22,318.76c0-164.03,132.73-296.76,296.76-296.76,164.03,0,296.76,132.73,296.76,296.76"/><path class="d" d="M541.33,318.76c0-123.02-99.55-222.57-222.57-222.57-123.02,0-222.57,99.55-222.57,222.57"/><path class="d" d="M170.38,318.76c0-82.02,66.37-148.38,148.38-148.38,82.02,0,148.38,66.37,148.38,148.38"/><path class="d" d="M392.95,318.76c0-41.01-33.18-74.19-74.19-74.19-41.01,0-74.19,33.18-74.19,74.19"/></g></g></g></svg>